<svg width="64" height="64" viewBox="0 0 64 64" fill="none" xmlns="http://www.w3.org/2000/svg">
<path d="M11 15H53V44H11V15Z" fill="white"/>
<path d="M11 15V18H50V44H53V15H11Z" fill="#DEE0E2"/>
<path d="M19.1 54.7001H44.9M9.70001 11.3H54.3C54.9631 11.3 55.5989 11.5634 56.0678 12.0323C56.5366 12.5011 56.8 13.137 56.8 13.8V44.5C56.8005 45.1726 56.5403 45.8192 56.0742 46.3041C55.608 46.7889 54.9721 47.0742 54.3 47.1H9.70001C9.02793 47.0742 8.39202 46.7889 7.92585 46.3041C7.45967 45.8192 7.19952 45.1726 7.20001 44.5V13.8C7.20001 13.137 7.46341 12.5011 7.93225 12.0323C8.40109 11.5634 9.03697 11.3 9.70001 11.3V11.3ZM10.8 14.8H53.2V43.5H10.8V14.8V14.8ZM29 35.7001C29.1352 35.684 29.2723 35.6988 29.4009 35.7433C29.5296 35.7879 29.6464 35.8611 29.7427 35.9574C29.839 36.0536 29.9122 36.1705 29.9567 36.2991C30.0013 36.4278 30.0161 36.5649 30 36.7001C30 36.9653 29.8947 37.2196 29.7071 37.4072C29.5196 37.5947 29.2652 37.7001 29 37.7001C28.7424 37.6775 28.5009 37.5649 28.318 37.382C28.1351 37.1992 28.0225 36.9577 28 36.7001C28 36.4348 28.1054 36.1805 28.2929 35.9929C28.4804 35.8054 28.7348 35.7001 29 35.7001ZM35.4 35.7001C35.5352 35.684 35.6723 35.6988 35.8009 35.7433C35.9296 35.7879 36.0464 35.8611 36.1427 35.9574C36.239 36.0536 36.3122 36.1705 36.3567 36.2991C36.4013 36.4278 36.4161 36.5649 36.4 36.7001C36.4 36.9653 36.2947 37.2196 36.1071 37.4072C35.9196 37.5947 35.6652 37.7001 35.4 37.7001C35.1348 37.7001 34.8804 37.5947 34.6929 37.4072C34.5054 37.2196 34.4 36.9653 34.4 36.7001C34.3839 36.5649 34.3987 36.4278 34.4433 36.2991C34.4879 36.1705 34.561 36.0536 34.6573 35.9574C34.7536 35.8611 34.8704 35.7879 34.9991 35.7433C35.1277 35.6988 35.2648 35.684 35.4 35.7001V35.7001ZM20.9 21.9H24.3L27.4 32.1H37.8L20.9 21.9ZM26.8 29H38.9H26.8ZM26 25.9H39.6H26ZM36.5 47.4001V54.3V47.4001ZM27.5 54.3V47.4001V54.3Z" stroke="#4D535B" stroke-width="2" stroke-miterlimit="10"/>
<g style="mix-blend-mode:darken">
<path d="M27 47H37V54H27V47Z" fill="#E27B36"/>
</g>
</svg>
