<svg width="47" height="45" viewBox="0 0 47 45" fill="none" xmlns="http://www.w3.org/2000/svg">
<g style="mix-blend-mode:darken">
<path d="M36.4 6.20001H41.4V38.5C41.4 38.7233 41.3561 38.9443 41.2706 39.1506C41.1852 39.3568 41.06 39.5442 40.9021 39.7021C40.7442 39.86 40.5568 39.9852 40.3506 40.0706C40.1443 40.156 39.9233 40.2 39.7 40.2C38.8248 40.2 37.9854 39.8523 37.3666 39.2335C36.7477 38.6146 36.4 37.7752 36.4 36.9V6.20001Z" fill="#E27B36"/>
</g>
<path d="M29.1 1H2.6C2.17565 1 1.76869 1.16857 1.46863 1.46863C1.16857 1.76869 1 2.17565 1 2.6V42C1 42.4243 1.16857 42.8313 1.46863 43.1314C1.76869 43.4314 2.17565 43.6 2.6 43.6H29.1C29.5243 43.6 29.9313 43.4314 30.2314 43.1314C30.5314 42.8313 30.7 42.4243 30.7 42V2.6C30.7 2.17565 30.5314 1.76869 30.2314 1.46863C29.9313 1.16857 29.5243 1 29.1 1ZM36.3 6.3H42V36C42 41.9 36.3 41.9 36.3 36V6.3Z" stroke="#4D535B" stroke-width="2" stroke-miterlimit="10"/>
<path d="M7.40002 31.5H15.8M45.7 22.1L45.8 11H36.3L45.7 22.1ZM39.1 43.6V40.4V43.6ZM7.40002 9.59998H15.8H7.40002ZM7.40002 17.5H24.3H7.40002ZM7.40002 22.2H24.3H7.40002ZM7.40002 26.8H24.3H7.40002Z" stroke="#4D535B" stroke-width="2" stroke-miterlimit="10"/>
</svg>
